<svg xmlns="http://www.w3.org/2000/svg" width="115.531" height="22.857" viewBox="0 0 115.531 22.857">
  <g id="Group_4" data-name="Group 4" transform="translate(-329.31 92.659)">
    <g id="Group_2" data-name="Group 2" transform="translate(362.747 -88.153)">
      <path id="Path_6" data-name="Path 6" d="M400.8-84.1V-81.1h-6.863c-.857,0-1.276.459-1.276,1.137,0,.638.359,1.2,1.516,1.2h2.832c3.79,0,4.668,2.055,4.668,4.05,0,2.374-1.256,4.089-4.409,4.089h-7.381v-2.992h7.48c.878,0,1.317-.479,1.317-1.177,0-.658-.379-1.257-1.576-1.257h-2.832c-3.731,0-4.628-2.054-4.628-4.009,0-2.334,1.257-4.03,4.389-4.03Z" transform="translate(-389.645 84.335)" fill="#fff"/>
      <path id="Path_7" data-name="Path 7" d="M425.248-84.1c3.909,0,6.084,2.234,6.084,6.762,0,4.508-2.154,6.7-6.084,6.7h-1.835c-3.93,0-6.084-2.195-6.084-6.7,0-4.528,2.174-6.762,6.084-6.762ZM423.413-81.1c-2.234,0-3.072,1.077-3.072,3.75,0,2.693.838,3.731,3.072,3.731h1.835c2.254,0,3.072-1.038,3.072-3.731,0-2.673-.818-3.75-3.072-3.75Z" transform="translate(-401.987 84.335)" fill="#fff"/>
      <path id="Path_8" data-name="Path 8" d="M452.688-84.1v8.558c0,1.037.5,1.915,2.394,1.915h4.907v2.992h-5.107c-3.75,0-5.226-2.055-5.226-4.887V-84.1Z" transform="translate(-416.399 84.335)" fill="#fff"/>
      <path id="Path_9" data-name="Path 9" d="M476.847-84.1v8.817c0,1.017.5,1.656,1.756,1.656h2.035c1.236,0,1.735-.638,1.735-1.656V-84.1h2.953v9.076c0,2.893-1.537,4.389-4.449,4.389h-2.633c-2.933,0-4.468-1.5-4.468-4.389V-84.1Z" transform="translate(-427.151 84.335)" fill="#fff"/>
      <path id="Path_10" data-name="Path 10" d="M502.135-70.823H498.9l3.75-10.832c.6-1.8,1.556-2.872,3.63-2.872,2.294,0,3.412,1.316,3.412,3.291v7.2a.49.49,0,0,0,.479.539.557.557,0,0,0,.518-.379l2.733-7.78c.579-1.8,1.536-2.872,3.611-2.872,2.314,0,3.411,1.316,3.411,3.291v10.413h-3.012V-81.077a.479.479,0,0,0-.479-.539.526.526,0,0,0-.5.379l-2.733,7.78c-.579,1.8-1.576,2.872-3.631,2.872a3.056,3.056,0,0,1-3.411-3.291v-7.2a.49.49,0,0,0-.478-.539.551.551,0,0,0-.519.379Z" transform="translate(-438.354 84.528)" fill="#fff"/>
    </g>
    <g id="Group_3" data-name="Group 3" transform="translate(329.31 -92.659)">
      <path id="Path_11" data-name="Path 11" d="M345.868-78.917h-5.014c-11.33,0-8.827-12.031-4.418-13.518a.116.116,0,0,0-.062-.222c-9.407.831-9.949,18.047,1.6,18.047h8.356c1.554,0,2.33-.847,2.33-2.083C348.657-77.858,347.986-78.917,345.868-78.917Z" transform="translate(-329.31 92.659)" fill="#fff"/>
      <path id="Path_12" data-name="Path 12" d="M347.769-79.676h5.013c11.33,0,8.827,12.031,4.419,13.517a.116.116,0,0,0,.061.222c9.407-.832,9.949-18.047-1.6-18.047h-8.357c-1.553,0-2.33.847-2.33,2.083C344.979-80.735,345.65-79.676,347.769-79.676Z" transform="translate(-336.296 88.792)" fill="#fff"/>
    </g>
  </g>
</svg>
